STARTFONT 2.1
FONT -misc-Darn-Bold-R-Normal--19-190-72-72-C-90-ISO10646-1
SIZE 19 72 72
FONTBOUNDINGBOX 35 19 -25 -4
COMMENT "Generated by fontforge, http://fontforge.sourceforge.net"
STARTPROPERTIES 17
FAMILY_NAME "Darn"
WEIGHT_NAME "Bold"
SLANT "R"
SETWIDTH_NAME "Normal"
FONT_NAME "DarnBold"
FACE_NAME "Darn Bold"
FONT_VERSION "000.100"
COPYRIGHT "Copyright (c) 2020, Gabriel Holodak"
PIXEL_SIZE 19
POINT_SIZE 190
RESOLUTION_X 72
RESOLUTION_Y 72
AVERAGE_WIDTH 90
FONT_ASCENT 15
FONT_DESCENT 4
CAP_HEIGHT 12
X_HEIGHT 9
ENDPROPERTIES
CHARS 210
STARTCHAR space
ENCODING 32
SWIDTH 473 0
DWIDTH 9 0
BBX 1 1 4 0
BITMAP
00
ENDCHAR
STARTCHAR exclam
ENCODING 33
SWIDTH 473 0
DWIDTH 9 0
BBX 2 12 4 0
BITMAP
C0
C0
C0
C0
C0
C0
C0
C0
00
C0
C0
C0
ENDCHAR
STARTCHAR quotedbl
ENCODING 34
SWIDTH 473 0
DWIDTH 9 0
BBX 5 4 3 9
BITMAP
D8
D8
D8
D8
ENDCHAR
STARTCHAR numbersign
ENCODING 35
SWIDTH 473 0
DWIDTH 9 0
BBX 8 12 1 0
BITMAP
66
66
66
FF
66
66
66
66
FF
66
66
66
ENDCHAR
STARTCHAR dollar
ENCODING 36
SWIDTH 473 0
DWIDTH 9 0
BBX 8 14 1 -1
BITMAP
18
7E
DB
D8
D8
D8
78
1E
1B
1B
1B
DB
7E
18
ENDCHAR
STARTCHAR percent
ENCODING 37
SWIDTH 473 0
DWIDTH 9 0
BBX 8 12 1 0
BITMAP
70
DB
DE
DE
7C
18
18
3E
7B
7B
DB
0E
ENDCHAR
STARTCHAR ampersand
ENCODING 38
SWIDTH 473 0
DWIDTH 9 0
BBX 8 12 1 0
BITMAP
38
6C
6C
6C
38
30
78
DB
CF
C6
CE
7B
ENDCHAR
STARTCHAR quotesingle
ENCODING 39
SWIDTH 473 0
DWIDTH 9 0
BBX 2 4 4 9
BITMAP
C0
C0
C0
C0
ENDCHAR
STARTCHAR parenleft
ENCODING 40
SWIDTH 473 0
DWIDTH 9 0
BBX 5 14 3 -1
BITMAP
18
30
60
60
C0
C0
C0
C0
C0
C0
60
60
30
18
ENDCHAR
STARTCHAR parenright
ENCODING 41
SWIDTH 473 0
DWIDTH 9 0
BBX 5 14 2 -1
BITMAP
C0
60
30
30
18
18
18
18
18
18
30
30
60
C0
ENDCHAR
STARTCHAR asterisk
ENCODING 42
SWIDTH 473 0
DWIDTH 9 0
BBX 8 7 1 3
BITMAP
18
DB
7E
3C
7E
DB
18
ENDCHAR
STARTCHAR plus
ENCODING 43
SWIDTH 473 0
DWIDTH 9 0
BBX 8 8 1 1
BITMAP
18
18
18
FF
FF
18
18
18
ENDCHAR
STARTCHAR comma
ENCODING 44
SWIDTH 473 0
DWIDTH 9 0
BBX 3 5 4 -2
BITMAP
E0
60
60
60
C0
ENDCHAR
STARTCHAR hyphen
ENCODING 45
SWIDTH 473 0
DWIDTH 9 0
BBX 6 2 2 4
BITMAP
FC
FC
ENDCHAR
STARTCHAR period
ENCODING 46
SWIDTH 473 0
DWIDTH 9 0
BBX 3 3 4 -1
BITMAP
E0
E0
E0
ENDCHAR
STARTCHAR slash
ENCODING 47
SWIDTH 473 0
DWIDTH 9 0
BBX 7 12 2 0
BITMAP
06
06
0C
0C
18
18
30
30
60
60
C0
C0
ENDCHAR
STARTCHAR zero
ENCODING 48
SWIDTH 500 0
DWIDTH 9 0
BBX 8 12 1 0
BITMAP
3C
66
66
CF
CF
DB
DB
F3
F3
66
66
3C
ENDCHAR
STARTCHAR one
ENCODING 49
SWIDTH 500 0
DWIDTH 9 0
BBX 8 12 1 0
BITMAP
18
38
78
D8
18
18
18
18
18
18
18
FF
ENDCHAR
STARTCHAR two
ENCODING 50
SWIDTH 500 0
DWIDTH 9 0
BBX 8 12 1 0
BITMAP
3C
66
C3
03
03
06
0C
18
30
60
C0
FF
ENDCHAR
STARTCHAR three
ENCODING 51
SWIDTH 500 0
DWIDTH 9 0
BBX 8 12 1 0
BITMAP
7C
C6
03
03
06
3C
06
03
03
03
C6
7C
ENDCHAR
STARTCHAR four
ENCODING 52
SWIDTH 500 0
DWIDTH 9 0
BBX 8 12 1 0
BITMAP
06
0E
1E
36
66
C6
C6
FF
06
06
06
06
ENDCHAR
STARTCHAR five
ENCODING 53
SWIDTH 500 0
DWIDTH 9 0
BBX 8 12 1 0
BITMAP
FF
C0
C0
C0
C0
FC
06
03
03
03
C6
7C
ENDCHAR
STARTCHAR six
ENCODING 54
SWIDTH 500 0
DWIDTH 9 0
BBX 8 12 1 0
BITMAP
3E
63
C0
C0
C0
FC
E6
C3
C3
C3
66
3C
ENDCHAR
STARTCHAR seven
ENCODING 55
SWIDTH 500 0
DWIDTH 9 0
BBX 8 12 1 0
BITMAP
FF
03
03
06
0C
0C
0C
18
18
18
18
18
ENDCHAR
STARTCHAR eight
ENCODING 56
SWIDTH 500 0
DWIDTH 9 0
BBX 8 12 1 0
BITMAP
3C
66
C3
C3
66
3C
66
C3
C3
C3
66
3C
ENDCHAR
STARTCHAR nine
ENCODING 57
SWIDTH 500 0
DWIDTH 9 0
BBX 8 12 1 0
BITMAP
3C
66
C3
C3
C3
67
3F
03
03
03
C6
7C
ENDCHAR
STARTCHAR colon
ENCODING 58
SWIDTH 473 0
DWIDTH 9 0
BBX 3 8 4 2
BITMAP
E0
E0
E0
00
00
E0
E0
E0
ENDCHAR
STARTCHAR semicolon
ENCODING 59
SWIDTH 473 0
DWIDTH 9 0
BBX 3 12 4 -2
BITMAP
E0
E0
E0
00
00
00
00
E0
60
60
60
C0
ENDCHAR
STARTCHAR less
ENCODING 60
SWIDTH 473 0
DWIDTH 9 0
BBX 7 11 2 1
BITMAP
06
0C
18
30
60
C0
60
30
18
0C
06
ENDCHAR
STARTCHAR equal
ENCODING 61
SWIDTH 473 0
DWIDTH 9 0
BBX 7 7 2 2
BITMAP
FE
FE
00
00
00
FE
FE
ENDCHAR
STARTCHAR greater
ENCODING 62
SWIDTH 473 0
DWIDTH 9 0
BBX 7 11 2 1
BITMAP
C0
60
30
18
0C
06
0C
18
30
60
C0
ENDCHAR
STARTCHAR question
ENCODING 63
SWIDTH 473 0
DWIDTH 9 0
BBX 8 12 1 0
BITMAP
3C
66
C3
03
03
06
0C
18
18
00
18
18
ENDCHAR
STARTCHAR at
ENCODING 64
SWIDTH 1000 0
DWIDTH 9 0
BBX 8 12 1 0
BITMAP
3E
63
C9
DD
D5
D5
D5
D5
DF
CA
60
3E
ENDCHAR
STARTCHAR A
ENCODING 65
SWIDTH 473 0
DWIDTH 9 0
BBX 8 12 1 0
BITMAP
18
18
3C
3C
66
66
C3
FF
C3
C3
C3
C3
ENDCHAR
STARTCHAR B
ENCODING 66
SWIDTH 473 0
DWIDTH 9 0
BBX 8 12 1 0
BITMAP
FC
C6
C3
C3
C6
FC
C6
C3
C3
C3
C6
FC
ENDCHAR
STARTCHAR C
ENCODING 67
SWIDTH 473 0
DWIDTH 9 0
BBX 8 12 1 0
BITMAP
3C
66
C3
C0
C0
C0
C0
C0
C0
C3
66
3C
ENDCHAR
STARTCHAR D
ENCODING 68
SWIDTH 473 0
DWIDTH 9 0
BBX 8 12 1 0
BITMAP
F8
CC
C6
C3
C3
C3
C3
C3
C3
C6
CC
F8
ENDCHAR
STARTCHAR E
ENCODING 69
SWIDTH 473 0
DWIDTH 9 0
BBX 8 12 1 0
BITMAP
FF
C0
C0
C0
C0
FE
C0
C0
C0
C0
C0
FF
ENDCHAR
STARTCHAR F
ENCODING 70
SWIDTH 473 0
DWIDTH 9 0
BBX 8 12 1 0
BITMAP
FF
C0
C0
C0
C0
FE
C0
C0
C0
C0
C0
C0
ENDCHAR
STARTCHAR G
ENCODING 71
SWIDTH 473 0
DWIDTH 9 0
BBX 8 12 1 0
BITMAP
3C
66
C3
C0
C0
C0
CF
C3
C3
C3
67
3F
ENDCHAR
STARTCHAR H
ENCODING 72
SWIDTH 473 0
DWIDTH 9 0
BBX 8 12 1 0
BITMAP
C3
C3
C3
C3
C3
FF
C3
C3
C3
C3
C3
C3
ENDCHAR
STARTCHAR I
ENCODING 73
SWIDTH 473 0
DWIDTH 9 0
BBX 8 12 1 0
BITMAP
FF
18
18
18
18
18
18
18
18
18
18
FF
ENDCHAR
STARTCHAR J
ENCODING 74
SWIDTH 473 0
DWIDTH 9 0
BBX 8 12 1 0
BITMAP
1F
03
03
03
03
03
03
03
03
C3
66
3C
ENDCHAR
STARTCHAR K
ENCODING 75
SWIDTH 473 0
DWIDTH 9 0
BBX 8 12 1 0
BITMAP
C3
C6
CC
D8
F0
E0
E0
F0
D8
CC
C6
C3
ENDCHAR
STARTCHAR L
ENCODING 76
SWIDTH 473 0
DWIDTH 9 0
BBX 8 12 1 0
BITMAP
C0
C0
C0
C0
C0
C0
C0
C0
C0
C0
C0
FF
ENDCHAR
STARTCHAR M
ENCODING 77
SWIDTH 473 0
DWIDTH 9 0
BBX 8 12 1 0
BITMAP
81
C3
C3
E7
E7
FF
DB
DB
C3
C3
C3
C3
ENDCHAR
STARTCHAR N
ENCODING 78
SWIDTH 473 0
DWIDTH 9 0
BBX 8 12 1 0
BITMAP
C3
C3
E3
F3
D3
DB
CB
CF
C7
C3
C3
C3
ENDCHAR
STARTCHAR O
ENCODING 79
SWIDTH 473 0
DWIDTH 9 0
BBX 8 12 1 0
BITMAP
3C
66
C3
C3
C3
C3
C3
C3
C3
C3
66
3C
ENDCHAR
STARTCHAR P
ENCODING 80
SWIDTH 473 0
DWIDTH 9 0
BBX 8 12 1 0
BITMAP
FC
C6
C3
C3
C3
C6
FC
C0
C0
C0
C0
C0
ENDCHAR
STARTCHAR Q
ENCODING 81
SWIDTH 473 0
DWIDTH 9 0
BBX 8 13 1 -1
BITMAP
3C
66
C3
C3
C3
C3
C3
C3
C3
DB
76
3C
07
ENDCHAR
STARTCHAR R
ENCODING 82
SWIDTH 473 0
DWIDTH 9 0
BBX 8 12 1 0
BITMAP
FC
C6
C3
C3
C3
C6
FC
CC
C6
C6
C3
C3
ENDCHAR
STARTCHAR S
ENCODING 83
SWIDTH 473 0
DWIDTH 9 0
BBX 8 12 1 0
BITMAP
3C
66
C3
C0
60
38
0E
03
03
C3
66
3C
ENDCHAR
STARTCHAR T
ENCODING 84
SWIDTH 473 0
DWIDTH 9 0
BBX 8 12 1 0
BITMAP
FF
18
18
18
18
18
18
18
18
18
18
18
ENDCHAR
STARTCHAR U
ENCODING 85
SWIDTH 473 0
DWIDTH 9 0
BBX 8 12 1 0
BITMAP
C3
C3
C3
C3
C3
C3
C3
C3
C3
C3
66
3C
ENDCHAR
STARTCHAR V
ENCODING 86
SWIDTH 473 0
DWIDTH 9 0
BBX 8 12 1 0
BITMAP
C3
C3
C3
C3
C3
C3
66
66
3C
3C
18
18
ENDCHAR
STARTCHAR W
ENCODING 87
SWIDTH 473 0
DWIDTH 9 0
BBX 8 12 1 0
BITMAP
C3
C3
C3
C3
C3
C3
DB
DB
FF
FF
66
66
ENDCHAR
STARTCHAR X
ENCODING 88
SWIDTH 473 0
DWIDTH 9 0
BBX 8 12 1 0
BITMAP
C3
C3
66
66
3C
18
18
3C
66
66
C3
C3
ENDCHAR
STARTCHAR Y
ENCODING 89
SWIDTH 473 0
DWIDTH 9 0
BBX 8 12 1 0
BITMAP
C3
C3
C3
C3
66
3C
18
18
18
18
18
18
ENDCHAR
STARTCHAR Z
ENCODING 90
SWIDTH 473 0
DWIDTH 9 0
BBX 8 12 1 0
BITMAP
FF
03
06
06
0C
18
18
30
60
60
C0
FF
ENDCHAR
STARTCHAR bracketleft
ENCODING 91
SWIDTH 473 0
DWIDTH 9 0
BBX 5 14 3 -1
BITMAP
F8
C0
C0
C0
C0
C0
C0
C0
C0
C0
C0
C0
C0
F8
ENDCHAR
STARTCHAR backslash
ENCODING 92
SWIDTH 473 0
DWIDTH 9 0
BBX 7 12 2 0
BITMAP
C0
C0
60
60
30
30
18
18
0C
0C
06
06
ENDCHAR
STARTCHAR bracketright
ENCODING 93
SWIDTH 473 0
DWIDTH 9 0
BBX 5 14 2 -1
BITMAP
F8
18
18
18
18
18
18
18
18
18
18
18
18
F8
ENDCHAR
STARTCHAR asciicircum
ENCODING 94
SWIDTH 473 0
DWIDTH 9 0
BBX 8 4 1 9
BITMAP
18
3C
66
C3
ENDCHAR
STARTCHAR underscore
ENCODING 95
SWIDTH 473 0
DWIDTH 9 0
BBX 8 2 1 -2
BITMAP
FF
FF
ENDCHAR
STARTCHAR grave
ENCODING 96
SWIDTH 473 0
DWIDTH 9 0
BBX 5 4 3 9
BITMAP
C0
60
30
18
ENDCHAR
STARTCHAR a
ENCODING 97
SWIDTH 473 0
DWIDTH 9 0
BBX 8 9 1 0
BITMAP
7E
C3
03
03
7F
C3
C3
C3
7F
ENDCHAR
STARTCHAR b
ENCODING 98
SWIDTH 473 0
DWIDTH 9 0
BBX 8 13 1 0
BITMAP
C0
C0
C0
C0
FC
C6
C3
C3
C3
C3
C3
C6
FC
ENDCHAR
STARTCHAR c
ENCODING 99
SWIDTH 473 0
DWIDTH 9 0
BBX 8 9 1 0
BITMAP
3C
66
C3
C0
C0
C0
C3
66
3C
ENDCHAR
STARTCHAR d
ENCODING 100
SWIDTH 473 0
DWIDTH 9 0
BBX 8 13 1 0
BITMAP
03
03
03
03
3F
63
C3
C3
C3
C3
C3
63
3F
ENDCHAR
STARTCHAR e
ENCODING 101
SWIDTH 473 0
DWIDTH 9 0
BBX 8 9 1 0
BITMAP
3C
66
C3
C3
FF
C0
C0
63
3E
ENDCHAR
STARTCHAR f
ENCODING 102
SWIDTH 473 0
DWIDTH 9 0
BBX 8 13 1 0
BITMAP
0F
18
30
30
FE
30
30
30
30
30
30
30
30
ENDCHAR
STARTCHAR g
ENCODING 103
SWIDTH 473 0
DWIDTH 9 0
BBX 8 13 1 -4
BITMAP
3F
63
C3
C3
C3
C3
C3
63
3F
03
03
06
7C
ENDCHAR
STARTCHAR h
ENCODING 104
SWIDTH 473 0
DWIDTH 9 0
BBX 8 13 1 0
BITMAP
C0
C0
C0
C0
FC
C6
C3
C3
C3
C3
C3
C3
C3
ENDCHAR
STARTCHAR i
ENCODING 105
SWIDTH 473 0
DWIDTH 9 0
BBX 6 13 2 0
BITMAP
30
30
00
00
F0
30
30
30
30
30
30
30
1C
ENDCHAR
STARTCHAR j
ENCODING 106
SWIDTH 473 0
DWIDTH 9 0
BBX 7 17 1 -4
BITMAP
06
06
00
00
1E
06
06
06
06
06
06
06
06
06
06
CC
78
ENDCHAR
STARTCHAR k
ENCODING 107
SWIDTH 473 0
DWIDTH 9 0
BBX 7 13 1 0
BITMAP
C0
C0
C0
C0
C6
CC
D8
F0
E0
F0
D8
CC
C6
ENDCHAR
STARTCHAR l
ENCODING 108
SWIDTH 473 0
DWIDTH 9 0
BBX 7 13 2 0
BITMAP
F0
30
30
30
30
30
30
30
30
30
30
30
1E
ENDCHAR
STARTCHAR m
ENCODING 109
SWIDTH 473 0
DWIDTH 9 0
BBX 8 9 1 0
BITMAP
F6
DB
DB
DB
DB
DB
DB
DB
DB
ENDCHAR
STARTCHAR n
ENCODING 110
SWIDTH 473 0
DWIDTH 9 0
BBX 7 9 2 0
BITMAP
FC
C6
C6
C6
C6
C6
C6
C6
C6
ENDCHAR
STARTCHAR o
ENCODING 111
SWIDTH 473 0
DWIDTH 9 0
BBX 8 9 1 0
BITMAP
3C
66
C3
C3
C3
C3
C3
66
3C
ENDCHAR
STARTCHAR p
ENCODING 112
SWIDTH 473 0
DWIDTH 9 0
BBX 8 13 1 -4
BITMAP
FC
C6
C3
C3
C3
C3
C3
C6
FC
C0
C0
C0
C0
ENDCHAR
STARTCHAR q
ENCODING 113
SWIDTH 473 0
DWIDTH 9 0
BBX 8 13 1 -4
BITMAP
3F
63
C3
C3
C3
C3
C3
63
3F
03
03
03
03
ENDCHAR
STARTCHAR r
ENCODING 114
SWIDTH 473 0
DWIDTH 9 0
BBX 8 9 1 0
BITMAP
DE
E3
C0
C0
C0
C0
C0
C0
C0
ENDCHAR
STARTCHAR s
ENCODING 115
SWIDTH 473 0
DWIDTH 9 0
BBX 8 9 1 0
BITMAP
7E
C3
C0
C0
7E
03
03
C3
7E
ENDCHAR
STARTCHAR t
ENCODING 116
SWIDTH 473 0
DWIDTH 9 0
BBX 8 13 1 0
BITMAP
30
30
30
30
FE
30
30
30
30
30
30
18
0F
ENDCHAR
STARTCHAR u
ENCODING 117
SWIDTH 473 0
DWIDTH 9 0
BBX 8 9 1 0
BITMAP
C3
C3
C3
C3
C3
C3
C3
63
3F
ENDCHAR
STARTCHAR v
ENCODING 118
SWIDTH 473 0
DWIDTH 9 0
BBX 8 9 1 0
BITMAP
C3
C3
C3
66
66
3C
3C
18
18
ENDCHAR
STARTCHAR w
ENCODING 119
SWIDTH 473 0
DWIDTH 9 0
BBX 8 9 1 0
BITMAP
C3
C3
C3
DB
DB
FF
FF
66
66
ENDCHAR
STARTCHAR x
ENCODING 120
SWIDTH 473 0
DWIDTH 9 0
BBX 8 9 1 0
BITMAP
C3
C3
66
3C
18
3C
66
C3
C3
ENDCHAR
STARTCHAR y
ENCODING 121
SWIDTH 473 0
DWIDTH 9 0
BBX 8 13 1 -4
BITMAP
C3
C3
C3
C3
C3
C3
C3
63
3F
03
03
06
7C
ENDCHAR
STARTCHAR z
ENCODING 122
SWIDTH 473 0
DWIDTH 9 0
BBX 8 9 1 0
BITMAP
FF
03
06
0C
18
30
60
C0
FF
ENDCHAR
STARTCHAR braceleft
ENCODING 123
SWIDTH 473 0
DWIDTH 9 0
BBX 6 15 2 -1
BITMAP
3C
60
60
60
30
30
30
E0
30
30
30
60
60
60
3C
ENDCHAR
STARTCHAR bar
ENCODING 124
SWIDTH 473 0
DWIDTH 9 0
BBX 2 14 4 -1
BITMAP
C0
C0
C0
C0
C0
C0
C0
C0
C0
C0
C0
C0
C0
C0
ENDCHAR
STARTCHAR braceright
ENCODING 125
SWIDTH 473 0
DWIDTH 9 0
BBX 6 15 2 -1
BITMAP
F0
18
18
18
30
30
30
1C
30
30
30
18
18
18
F0
ENDCHAR
STARTCHAR asciitilde
ENCODING 126
SWIDTH 473 0
DWIDTH 9 0
BBX 8 3 1 6
BITMAP
73
DB
CE
ENDCHAR
STARTCHAR uni00A0
ENCODING 160
SWIDTH 473 0
DWIDTH 9 0
BBX 1 1 0 0
BITMAP
00
ENDCHAR
STARTCHAR exclamdown
ENCODING 161
SWIDTH 473 0
DWIDTH 9 0
BBX 2 12 4 -3
BITMAP
C0
C0
C0
00
C0
C0
C0
C0
C0
C0
C0
C0
ENDCHAR
STARTCHAR cent
ENCODING 162
SWIDTH 473 0
DWIDTH 9 0
BBX 8 13 1 -2
BITMAP
18
18
3C
7E
DB
D8
D8
D8
DB
7E
3C
18
18
ENDCHAR
STARTCHAR sterling
ENCODING 163
SWIDTH 473 0
DWIDTH 9 0
BBX 8 12 1 0
BITMAP
1E
33
30
30
30
FE
30
30
30
30
60
FF
ENDCHAR
STARTCHAR currency
ENCODING 164
SWIDTH 473 0
DWIDTH 9 0
BBX 8 9 1 1
BITMAP
81
DB
66
C3
C3
C3
66
DB
81
ENDCHAR
STARTCHAR yen
ENCODING 165
SWIDTH 473 0
DWIDTH 9 0
BBX 8 12 1 0
BITMAP
C3
C3
C3
C3
66
3C
FF
18
FF
18
18
18
ENDCHAR
STARTCHAR brokenbar
ENCODING 166
SWIDTH 473 0
DWIDTH 9 0
BBX 2 14 4 -1
BITMAP
C0
C0
C0
C0
C0
C0
00
00
C0
C0
C0
C0
C0
C0
ENDCHAR
STARTCHAR section
ENCODING 167
SWIDTH 473 0
DWIDTH 9 0
BBX 6 13 2 -1
BITMAP
78
CC
C0
C0
60
F0
C8
4C
3C
18
0C
CC
78
ENDCHAR
STARTCHAR dieresis
ENCODING 168
SWIDTH 473 0
DWIDTH 9 0
BBX 6 2 2 11
BITMAP
CC
CC
ENDCHAR
STARTCHAR copyright
ENCODING 169
SWIDTH 473 0
DWIDTH 9 0
BBX 8 11 1 1
BITMAP
3C
66
DB
BD
B5
B1
B5
BD
DB
66
3C
ENDCHAR
STARTCHAR ordfeminine
ENCODING 170
SWIDTH 473 0
DWIDTH 9 0
BBX 6 8 2 5
BITMAP
78
0C
7C
CC
CC
7C
00
FC
ENDCHAR
STARTCHAR guillemotleft
ENCODING 171
SWIDTH 473 0
DWIDTH 9 0
BBX 8 7 1 3
BITMAP
1B
36
6C
D8
6C
36
1B
ENDCHAR
STARTCHAR logicalnot
ENCODING 172
SWIDTH 473 0
DWIDTH 9 0
BBX 8 4 1 2
BITMAP
FF
FF
03
03
ENDCHAR
STARTCHAR uni00AD
ENCODING 173
SWIDTH 473 0
DWIDTH 9 0
BBX 6 2 2 4
BITMAP
FC
FC
ENDCHAR
STARTCHAR registered
ENCODING 174
SWIDTH 473 0
DWIDTH 9 0
BBX 8 11 1 1
BITMAP
3C
66
DB
B5
B5
B9
B5
B5
C3
66
3C
ENDCHAR
STARTCHAR macron
ENCODING 175
SWIDTH 473 0
DWIDTH 9 0
BBX 5 2 2 11
BITMAP
F8
F8
ENDCHAR
STARTCHAR degree
ENCODING 176
SWIDTH 473 0
DWIDTH 9 0
BBX 6 5 2 8
BITMAP
78
CC
CC
CC
78
ENDCHAR
STARTCHAR plusminus
ENCODING 177
SWIDTH 473 0
DWIDTH 9 0
BBX 8 10 1 0
BITMAP
18
18
18
FF
FF
18
18
00
FF
FF
ENDCHAR
STARTCHAR uni00B2
ENCODING 178
SWIDTH 473 0
DWIDTH 9 0
BBX 6 7 2 7
BITMAP
78
CC
0C
18
30
60
FC
ENDCHAR
STARTCHAR uni00B3
ENCODING 179
SWIDTH 473 0
DWIDTH 9 0
BBX 6 7 2 7
BITMAP
F8
0C
0C
78
0C
0C
F8
ENDCHAR
STARTCHAR acute
ENCODING 180
SWIDTH 473 0
DWIDTH 9 0
BBX 4 3 3 10
BITMAP
30
60
C0
ENDCHAR
STARTCHAR mu
ENCODING 181
SWIDTH 473 0
DWIDTH 9 0
BBX 8 13 1 -4
BITMAP
C6
C6
C6
C6
C6
C6
C6
EE
FB
C0
C0
C0
C0
ENDCHAR
STARTCHAR paragraph
ENCODING 182
SWIDTH 473 0
DWIDTH 9 0
BBX 8 12 1 0
BITMAP
3F
7B
FB
FB
FB
7B
3B
1B
1B
1B
1B
1B
ENDCHAR
STARTCHAR periodcentered
ENCODING 183
SWIDTH 473 0
DWIDTH 9 0
BBX 3 3 4 4
BITMAP
E0
E0
E0
ENDCHAR
STARTCHAR cedilla
ENCODING 184
SWIDTH 473 0
DWIDTH 9 0
BBX 4 4 3 -4
BITMAP
60
30
30
E0
ENDCHAR
STARTCHAR uni00B9
ENCODING 185
SWIDTH 473 0
DWIDTH 9 0
BBX 6 7 2 7
BITMAP
30
70
B0
30
30
30
FC
ENDCHAR
STARTCHAR ordmasculine
ENCODING 186
SWIDTH 473 0
DWIDTH 9 0
BBX 6 8 2 5
BITMAP
78
CC
CC
CC
CC
78
00
FC
ENDCHAR
STARTCHAR guillemotright
ENCODING 187
SWIDTH 473 0
DWIDTH 9 0
BBX 8 7 1 3
BITMAP
D8
6C
36
1B
36
6C
D8
ENDCHAR
STARTCHAR onequarter
ENCODING 188
SWIDTH 473 0
DWIDTH 9 0
BBX 8 16 1 -2
BITMAP
30
70
B0
30
30
31
FA
04
08
16
2E
5E
36
3F
06
06
ENDCHAR
STARTCHAR onehalf
ENCODING 189
SWIDTH 473 0
DWIDTH 9 0
BBX 8 16 1 -2
BITMAP
30
70
B0
30
30
32
FC
08
10
2E
5B
83
06
0C
18
3F
ENDCHAR
STARTCHAR threequarters
ENCODING 190
SWIDTH 473 0
DWIDTH 9 0
BBX 8 16 1 -2
BITMAP
F8
0C
0C
78
0C
0D
FA
04
08
16
2E
5E
36
3F
06
06
ENDCHAR
STARTCHAR questiondown
ENCODING 191
SWIDTH 473 0
DWIDTH 9 0
BBX 8 12 1 -3
BITMAP
18
18
00
18
18
30
60
C0
C0
C3
66
3C
ENDCHAR
STARTCHAR Agrave
ENCODING 192
SWIDTH 1000 0
DWIDTH 9 0
BBX 8 15 1 0
BITMAP
30
18
00
18
18
3C
3C
66
66
C3
FF
C3
C3
C3
C3
ENDCHAR
STARTCHAR Aacute
ENCODING 193
SWIDTH 473 0
DWIDTH 9 0
BBX 8 15 1 0
BITMAP
0C
18
00
18
18
3C
3C
66
66
C3
FF
C3
C3
C3
C3
ENDCHAR
STARTCHAR Acircumflex
ENCODING 194
SWIDTH 473 0
DWIDTH 9 0
BBX 8 15 1 0
BITMAP
1C
36
00
18
18
3C
3C
66
66
C3
FF
C3
C3
C3
C3
ENDCHAR
STARTCHAR Atilde
ENCODING 195
SWIDTH 473 0
DWIDTH 9 0
BBX 8 15 1 0
BITMAP
3B
6E
00
18
18
3C
3C
66
66
C3
FF
C3
C3
C3
C3
ENDCHAR
STARTCHAR Adieresis
ENCODING 196
SWIDTH 473 0
DWIDTH 9 0
BBX 8 15 1 0
BITMAP
66
66
00
18
18
3C
3C
66
66
C3
FF
C3
C3
C3
C3
ENDCHAR
STARTCHAR Aring
ENCODING 197
SWIDTH 473 0
DWIDTH 9 0
BBX 8 15 1 0
BITMAP
18
24
24
18
18
3C
3C
66
66
C3
FF
C3
C3
C3
C3
ENDCHAR
STARTCHAR AE
ENCODING 198
SWIDTH 473 0
DWIDTH 9 0
BBX 8 12 1 0
BITMAP
1F
3C
3C
6C
4C
CF
CC
FC
CC
CC
CC
CF
ENDCHAR
STARTCHAR Ccedilla
ENCODING 199
SWIDTH 1000 0
DWIDTH 9 0
BBX 8 16 1 -4
BITMAP
3C
66
C3
C0
C0
C0
C0
C0
C0
C3
66
3C
18
0C
0C
38
ENDCHAR
STARTCHAR Egrave
ENCODING 200
SWIDTH 1000 0
DWIDTH 9 0
BBX 8 15 1 0
BITMAP
30
18
00
FF
C0
C0
C0
C0
FE
C0
C0
C0
C0
C0
FF
ENDCHAR
STARTCHAR Eacute
ENCODING 201
SWIDTH 1000 0
DWIDTH 9 0
BBX 8 15 1 0
BITMAP
0C
18
00
FF
C0
C0
C0
C0
FE
C0
C0
C0
C0
C0
FF
ENDCHAR
STARTCHAR Ecircumflex
ENCODING 202
SWIDTH 1000 0
DWIDTH 9 0
BBX 8 15 1 0
BITMAP
1C
36
00
FF
C0
C0
C0
C0
FE
C0
C0
C0
C0
C0
FF
ENDCHAR
STARTCHAR Edieresis
ENCODING 203
SWIDTH 1000 0
DWIDTH 9 0
BBX 8 15 1 0
BITMAP
66
66
00
FF
C0
C0
C0
C0
FE
C0
C0
C0
C0
C0
FF
ENDCHAR
STARTCHAR Igrave
ENCODING 204
SWIDTH 473 0
DWIDTH 9 0
BBX 8 15 1 0
BITMAP
30
18
00
FF
18
18
18
18
18
18
18
18
18
18
FF
ENDCHAR
STARTCHAR Iacute
ENCODING 205
SWIDTH 473 0
DWIDTH 9 0
BBX 8 15 1 0
BITMAP
0C
18
00
FF
18
18
18
18
18
18
18
18
18
18
FF
ENDCHAR
STARTCHAR Icircumflex
ENCODING 206
SWIDTH 473 0
DWIDTH 9 0
BBX 8 15 1 0
BITMAP
1C
36
00
FF
18
18
18
18
18
18
18
18
18
18
FF
ENDCHAR
STARTCHAR Idieresis
ENCODING 207
SWIDTH 1000 0
DWIDTH 9 0
BBX 8 15 1 0
BITMAP
66
66
00
FF
18
18
18
18
18
18
18
18
18
18
FF
ENDCHAR
STARTCHAR Eth
ENCODING 208
SWIDTH 1000 0
DWIDTH 9 0
BBX 8 12 1 0
BITMAP
78
6C
66
63
63
FB
63
63
63
66
6C
78
ENDCHAR
STARTCHAR Ntilde
ENCODING 209
SWIDTH 1000 0
DWIDTH 9 0
BBX 8 15 1 0
BITMAP
3B
6E
00
C3
C3
E3
F3
D3
DB
CB
CF
C7
C3
C3
C3
ENDCHAR
STARTCHAR Ograve
ENCODING 210
SWIDTH 473 0
DWIDTH 9 0
BBX 8 15 1 0
BITMAP
30
18
00
3C
66
C3
C3
C3
C3
C3
C3
C3
C3
66
3C
ENDCHAR
STARTCHAR Oacute
ENCODING 211
SWIDTH 473 0
DWIDTH 9 0
BBX 8 15 1 0
BITMAP
0C
18
00
3C
66
C3
C3
C3
C3
C3
C3
C3
C3
66
3C
ENDCHAR
STARTCHAR Ocircumflex
ENCODING 212
SWIDTH 473 0
DWIDTH 9 0
BBX 8 15 1 0
BITMAP
1C
36
00
3C
66
C3
C3
C3
C3
C3
C3
C3
C3
66
3C
ENDCHAR
STARTCHAR Otilde
ENCODING 213
SWIDTH 473 0
DWIDTH 9 0
BBX 8 15 1 0
BITMAP
3B
6E
00
3C
66
C3
C3
C3
C3
C3
C3
C3
C3
66
3C
ENDCHAR
STARTCHAR Odieresis
ENCODING 214
SWIDTH 1000 0
DWIDTH 9 0
BBX 8 15 1 0
BITMAP
66
66
00
3C
66
C3
C3
C3
C3
C3
C3
C3
C3
66
3C
ENDCHAR
STARTCHAR multiply
ENCODING 215
SWIDTH 473 0
DWIDTH 9 0
BBX 8 7 1 2
BITMAP
C3
66
3C
18
3C
66
C3
ENDCHAR
STARTCHAR Oslash
ENCODING 216
SWIDTH 473 0
DWIDTH 9 0
BBX 8 12 1 0
BITMAP
3B
66
C7
CF
CB
DB
DB
D3
F3
E3
66
DC
ENDCHAR
STARTCHAR Ugrave
ENCODING 217
SWIDTH 473 0
DWIDTH 9 0
BBX 8 15 1 0
BITMAP
30
18
00
C3
C3
C3
C3
C3
C3
C3
C3
C3
C3
66
3C
ENDCHAR
STARTCHAR Uacute
ENCODING 218
SWIDTH 473 0
DWIDTH 9 0
BBX 8 15 1 0
BITMAP
0C
18
00
C3
C3
C3
C3
C3
C3
C3
C3
C3
C3
66
3C
ENDCHAR
STARTCHAR Ucircumflex
ENCODING 219
SWIDTH 473 0
DWIDTH 9 0
BBX 8 15 1 0
BITMAP
1C
36
00
C3
C3
C3
C3
C3
C3
C3
C3
C3
C3
66
3C
ENDCHAR
STARTCHAR Udieresis
ENCODING 220
SWIDTH 473 0
DWIDTH 9 0
BBX 8 15 1 0
BITMAP
66
66
00
C3
C3
C3
C3
C3
C3
C3
C3
C3
C3
66
3C
ENDCHAR
STARTCHAR Yacute
ENCODING 221
SWIDTH 473 0
DWIDTH 9 0
BBX 8 15 1 0
BITMAP
0C
18
00
C3
C3
C3
C3
66
3C
18
18
18
18
18
18
ENDCHAR
STARTCHAR Thorn
ENCODING 222
SWIDTH 473 0
DWIDTH 9 0
BBX 8 12 1 0
BITMAP
C0
C0
FC
C6
C3
C3
C3
C6
FC
C0
C0
C0
ENDCHAR
STARTCHAR germandbls
ENCODING 223
SWIDTH 473 0
DWIDTH 9 0
BBX 8 13 1 0
BITMAP
7C
C6
C6
C6
CC
D8
D8
CC
C6
C3
C3
F3
DE
ENDCHAR
STARTCHAR agrave
ENCODING 224
SWIDTH 1000 0
DWIDTH 9 0
BBX 8 12 1 0
BITMAP
30
18
00
7E
C3
03
03
7F
C3
C3
C3
7F
ENDCHAR
STARTCHAR aacute
ENCODING 225
SWIDTH 473 0
DWIDTH 9 0
BBX 8 12 1 0
BITMAP
0C
18
00
7E
C3
03
03
7F
C3
C3
C3
7F
ENDCHAR
STARTCHAR acircumflex
ENCODING 226
SWIDTH 473 0
DWIDTH 9 0
BBX 8 12 1 0
BITMAP
1C
36
00
7E
C3
03
03
7F
C3
C3
C3
7F
ENDCHAR
STARTCHAR atilde
ENCODING 227
SWIDTH 473 0
DWIDTH 9 0
BBX 8 12 1 0
BITMAP
3B
6E
00
7E
C3
03
03
7F
C3
C3
C3
7F
ENDCHAR
STARTCHAR adieresis
ENCODING 228
SWIDTH 473 0
DWIDTH 9 0
BBX 8 12 1 0
BITMAP
66
66
00
7E
C3
03
03
7F
C3
C3
C3
7F
ENDCHAR
STARTCHAR aring
ENCODING 229
SWIDTH 473 0
DWIDTH 9 0
BBX 8 13 1 0
BITMAP
18
24
24
18
7E
C3
03
03
7F
C3
C3
C3
7F
ENDCHAR
STARTCHAR ae
ENCODING 230
SWIDTH 473 0
DWIDTH 9 0
BBX 8 9 1 0
BITMAP
76
DB
1B
1B
7F
D8
D8
DB
6E
ENDCHAR
STARTCHAR ccedilla
ENCODING 231
SWIDTH 1000 0
DWIDTH 9 0
BBX 8 13 1 -4
BITMAP
3C
66
C3
C0
C0
C0
C3
66
3C
18
0C
0C
38
ENDCHAR
STARTCHAR egrave
ENCODING 232
SWIDTH 1000 0
DWIDTH 9 0
BBX 8 12 1 0
BITMAP
30
18
00
3C
66
C3
C3
FF
C0
C0
63
3E
ENDCHAR
STARTCHAR eacute
ENCODING 233
SWIDTH 1000 0
DWIDTH 9 0
BBX 8 12 1 0
BITMAP
0C
18
00
3C
66
C3
C3
FF
C0
C0
63
3E
ENDCHAR
STARTCHAR ecircumflex
ENCODING 234
SWIDTH 1000 0
DWIDTH 9 0
BBX 8 12 1 0
BITMAP
1C
36
00
3C
66
C3
C3
FF
C0
C0
63
3E
ENDCHAR
STARTCHAR edieresis
ENCODING 235
SWIDTH 1000 0
DWIDTH 9 0
BBX 8 12 1 0
BITMAP
66
66
00
3C
66
C3
C3
FF
C0
C0
63
3E
ENDCHAR
STARTCHAR igrave
ENCODING 236
SWIDTH 473 0
DWIDTH 9 0
BBX 6 12 2 0
BITMAP
60
30
00
F0
30
30
30
30
30
30
30
1C
ENDCHAR
STARTCHAR iacute
ENCODING 237
SWIDTH 473 0
DWIDTH 9 0
BBX 6 12 2 0
BITMAP
18
30
00
F0
30
30
30
30
30
30
30
1C
ENDCHAR
STARTCHAR icircumflex
ENCODING 238
SWIDTH 473 0
DWIDTH 9 0
BBX 6 12 2 0
BITMAP
70
D8
00
F0
30
30
30
30
30
30
30
1C
ENDCHAR
STARTCHAR idieresis
ENCODING 239
SWIDTH 1000 0
DWIDTH 9 0
BBX 6 12 2 0
BITMAP
CC
CC
00
F0
30
30
30
30
30
30
30
1C
ENDCHAR
STARTCHAR eth
ENCODING 240
SWIDTH 1000 0
DWIDTH 9 0
BBX 8 14 1 0
BITMAP
33
1E
0C
1E
36
03
3B
67
C3
C3
C3
C3
66
3C
ENDCHAR
STARTCHAR ntilde
ENCODING 241
SWIDTH 1000 0
DWIDTH 9 0
BBX 7 12 2 0
BITMAP
76
DC
00
FC
C6
C6
C6
C6
C6
C6
C6
C6
ENDCHAR
STARTCHAR ograve
ENCODING 242
SWIDTH 473 0
DWIDTH 9 0
BBX 8 12 1 0
BITMAP
30
18
00
3C
66
C3
C3
C3
C3
C3
66
3C
ENDCHAR
STARTCHAR oacute
ENCODING 243
SWIDTH 473 0
DWIDTH 9 0
BBX 8 12 1 0
BITMAP
0C
18
00
3C
66
C3
C3
C3
C3
C3
66
3C
ENDCHAR
STARTCHAR ocircumflex
ENCODING 244
SWIDTH 1000 0
DWIDTH 9 0
BBX 8 12 1 0
BITMAP
1C
36
00
3C
66
C3
C3
C3
C3
C3
66
3C
ENDCHAR
STARTCHAR otilde
ENCODING 245
SWIDTH 473 0
DWIDTH 9 0
BBX 8 12 1 0
BITMAP
3B
6E
00
3C
66
C3
C3
C3
C3
C3
66
3C
ENDCHAR
STARTCHAR odieresis
ENCODING 246
SWIDTH 1000 0
DWIDTH 9 0
BBX 8 12 1 0
BITMAP
66
66
00
3C
66
C3
C3
C3
C3
C3
66
3C
ENDCHAR
STARTCHAR divide
ENCODING 247
SWIDTH 473 0
DWIDTH 9 0
BBX 8 8 1 1
BITMAP
18
18
00
FF
FF
00
18
18
ENDCHAR
STARTCHAR oslash
ENCODING 248
SWIDTH 473 0
DWIDTH 9 0
BBX 8 12 1 0
BITMAP
1C
36
00
3C
66
C3
C3
C3
C3
C3
66
3C
ENDCHAR
STARTCHAR ugrave
ENCODING 249
SWIDTH 473 0
DWIDTH 9 0
BBX 8 12 1 0
BITMAP
30
18
00
C3
C3
C3
C3
C3
C3
C3
63
3F
ENDCHAR
STARTCHAR uacute
ENCODING 250
SWIDTH 473 0
DWIDTH 9 0
BBX 8 12 1 0
BITMAP
0C
18
00
C3
C3
C3
C3
C3
C3
C3
63
3F
ENDCHAR
STARTCHAR ucircumflex
ENCODING 251
SWIDTH 473 0
DWIDTH 9 0
BBX 8 12 1 0
BITMAP
1C
36
00
C3
C3
C3
C3
C3
C3
C3
63
3F
ENDCHAR
STARTCHAR udieresis
ENCODING 252
SWIDTH 473 0
DWIDTH 9 0
BBX 8 12 1 0
BITMAP
66
66
00
C3
C3
C3
C3
C3
C3
C3
63
3F
ENDCHAR
STARTCHAR yacute
ENCODING 253
SWIDTH 473 0
DWIDTH 9 0
BBX 8 16 1 -4
BITMAP
0C
18
00
C3
C3
C3
C3
C3
C3
C3
63
3F
03
03
06
7C
ENDCHAR
STARTCHAR thorn
ENCODING 254
SWIDTH 473 0
DWIDTH 9 0
BBX 8 17 1 -4
BITMAP
C0
C0
C0
C0
DC
E6
C3
C3
C3
C3
C3
E6
DC
C0
C0
C0
C0
ENDCHAR
STARTCHAR ydieresis
ENCODING 255
SWIDTH 473 0
DWIDTH 9 0
BBX 8 16 1 -4
BITMAP
66
66
00
C3
C3
C3
C3
C3
C3
C3
63
3F
03
03
06
7C
ENDCHAR
STARTCHAR lambda
ENCODING 955
SWIDTH 473 0
DWIDTH 9 0
BBX 8 12 1 0
BITMAP
E0
30
30
18
18
38
2C
6C
6C
44
C7
C3
ENDCHAR
STARTCHAR uni2B61
ENCODING 11105
SWIDTH 1000 0
DWIDTH 9 0
BBX 6 12 2 1
BITMAP
30
78
FC
30
30
30
30
30
30
30
30
30
ENDCHAR
STARTCHAR uni2B63
ENCODING 11107
SWIDTH 1000 0
DWIDTH 9 0
BBX 6 12 2 0
BITMAP
30
30
30
30
30
30
30
30
30
FC
78
30
ENDCHAR
STARTCHAR uni2B81
ENCODING 11137
SWIDTH 473 0
DWIDTH 9 0
BBX 10 13 0 0
BITMAP
3000
7B00
FF00
3300
3300
3300
3300
3300
3300
3300
3FC0
3780
0300
ENDCHAR
STARTCHAR uni2B83
ENCODING 11139
SWIDTH 1000 0
DWIDTH 9 0
BBX 10 13 0 0
BITMAP
0300
3780
3FC0
3300
3300
3300
3300
3300
3300
3300
FF00
7B00
3000
ENDCHAR
STARTCHAR LIG
ENCODING -1
SWIDTH 473 0
DWIDTH 9 0
BBX 1 1 0 0
BITMAP
00
ENDCHAR
STARTCHAR hyphen_greater.liga
ENCODING -1
SWIDTH 473 0
DWIDTH 9 0
BBX 16 11 -7 1
BITMAP
0060
0030
0018
000C
0006
FFFF
0006
000C
0018
0030
0060
ENDCHAR
STARTCHAR hyphen_hyphen_greater.liga
ENCODING -1
SWIDTH 473 0
DWIDTH 9 0
BBX 25 11 -16 1
BITMAP
00003000
00001800
00000C00
00000600
00000300
FFFFFF80
00000300
00000600
00000C00
00001800
00003000
ENDCHAR
STARTCHAR equal_greater.liga
ENCODING -1
SWIDTH 473 0
DWIDTH 9 0
BBX 16 11 -7 1
BITMAP
0060
0030
0018
FFFC
FFFE
0003
FFFE
FFFC
0018
0030
0060
ENDCHAR
STARTCHAR equal_equal_greater.liga
ENCODING -1
SWIDTH 473 0
DWIDTH 9 0
BBX 25 11 -16 1
BITMAP
00003000
00001800
00000C00
FFFFFE00
FFFFFF00
00000180
FFFFFF00
FFFFFE00
00000C00
00001800
00003000
ENDCHAR
STARTCHAR less_equal_equal.liga
ENCODING -1
SWIDTH 473 0
DWIDTH 9 0
BBX 25 11 -16 1
BITMAP
06000000
0C000000
18000000
3FFFFF80
7FFFFF80
C0000000
7FFFFF80
3FFFFF80
18000000
0C000000
06000000
ENDCHAR
STARTCHAR less_hyphen_hyphen.liga
ENCODING -1
SWIDTH 473 0
DWIDTH 9 0
BBX 25 11 -16 1
BITMAP
06000000
0C000000
18000000
30000000
60000000
FFFFFF80
60000000
30000000
18000000
0C000000
06000000
ENDCHAR
STARTCHAR less_hyphen.liga
ENCODING -1
SWIDTH 473 0
DWIDTH 9 0
BBX 16 11 -7 1
BITMAP
0600
0C00
1800
3000
6000
FFFF
6000
3000
1800
0C00
0600
ENDCHAR
STARTCHAR less_exclam_hyphen_hyphen.liga
ENCODING -1
SWIDTH 473 0
DWIDTH 9 0
BBX 34 12 -25 0
BITMAP
0618000000
0C18000000
1818000000
3018000000
6018000000
FF99FFFFC0
6018000000
3018000000
1800000000
0C18000000
0618000000
0018000000
ENDCHAR
STARTCHAR less_equal_greater.liga
ENCODING -1
SWIDTH 473 0
DWIDTH 9 0
BBX 25 11 -16 1
BITMAP
06003000
0C001800
18000C00
3FFFFE00
7FFFFF00
C0000180
7FFFFF00
3FFFFE00
18000C00
0C001800
06003000
ENDCHAR
STARTCHAR equal_equal.liga
ENCODING -1
SWIDTH 473 0
DWIDTH 9 0
BBX 16 7 -7 2
BITMAP
FFFF
FFFF
0000
0000
0000
FFFF
FFFF
ENDCHAR
STARTCHAR equal_equal_equal.liga
ENCODING -1
SWIDTH 473 0
DWIDTH 9 0
BBX 25 8 -16 2
BITMAP
FF7F7F80
FF7F7F80
00000000
FF7F7F80
FF7F7F80
00000000
FF7F7F80
FF7F7F80
ENDCHAR
STARTCHAR exclam_equal.liga
ENCODING -1
SWIDTH 473 0
DWIDTH 9 0
BBX 16 12 -7 0
BITMAP
0030
0030
0060
FFFF
FFFF
0180
0180
FFFF
FFFF
0600
0C00
0C00
ENDCHAR
STARTCHAR exclam_equal_equal.liga
ENCODING -1
SWIDTH 473 0
DWIDTH 9 0
BBX 25 13 -16 -1
BITMAP
00018000
00018000
FF7F7F80
FF7F7F80
00060000
FF7F7F80
FF7F7F80
00180000
FF7F7F80
FF7F7F80
00600000
00C00000
00C00000
ENDCHAR
ENDFONT
